<svg id="Capa_1" data-name="Capa 1" xmlns="http://www.w3.org/2000/svg" viewBox="0 0 50 50"><defs><style>.cls-1{fill:#fe5857;}.cls-2{fill:#fafafa;}.cls-3{fill:#2196f3;}</style></defs><title>marker_shuttle</title><path class="cls-1" d="M18.8.13A18.69,18.69,0,0,0,.11,18.81c0,13,16.87,30,17.59,30.68a1.55,1.55,0,0,0,2.2,0h0c.72-.72,17.58-17.73,17.58-30.68A18.69,18.69,0,0,0,18.8.13Z"/><circle class="cls-2" cx="18.8" cy="18.81" r="9.34"/><circle class="cls-3" cx="37.48" cy="37.49" r="12.46"/><path d="M18.8,50a1.57,1.57,0,0,1-1.1-.46C17,48.77.11,31.76.11,18.81a18.69,18.69,0,0,1,37.37,0,13.64,13.64,0,0,1-.14,1.91,1.56,1.56,0,0,1-3.07-.52,9.2,9.2,0,0,0,.11-1.39,15.58,15.58,0,0,0-31.15,0c0,9.9,11.85,23.35,15.57,27.33.53-.58,1.24-1.35,2.06-2.28a1.56,1.56,0,0,1,2.36,2c-1.95,2.23-3.31,3.6-3.31,3.6A1.63,1.63,0,0,1,18.8,50Z"/><path d="M18.8,28.15a9.34,9.34,0,1,1,9.34-9.34A9.34,9.34,0,0,1,18.8,28.15Zm0-15.57A6.23,6.23,0,1,0,25,18.81,6.23,6.23,0,0,0,18.8,12.58Z"/><path d="M37.48,50A12.46,12.46,0,1,1,49.94,37.49,12.45,12.45,0,0,1,37.48,50Zm0-21.8a9.34,9.34,0,1,0,9.34,9.34A9.34,9.34,0,0,0,37.48,28.15Z"/><path d="M40.24,34.15H33.37a1,1,0,0,0-1,1v4.42h1a1.47,1.47,0,1,0,2.93,0H39a1.47,1.47,0,0,0,2.94,0h1.22V37.09Zm-6.87,2.94v-2h2v2Zm1.46,3.2a.74.74,0,1,1,.74-.74A.74.74,0,0,1,34.83,40.29Zm3.44-3.2h-2v-2h2Zm2.21,3.2a.74.74,0,1,1,.74-.74A.74.74,0,0,1,40.48,40.29Zm-1.23-3.2v-2h.49l2,2Z"/></svg>