<svg viewBox="0 0 50 50" xmlns="http://www.w3.org/2000/svg"><path d="m18.8.13a18.69 18.69 0 0 0 -18.69 18.68c0 13 16.87 30 17.59 30.68a1.55 1.55 0 0 0 2.2 0c.72-.72 17.58-17.73 17.58-30.68a18.69 18.69 0 0 0 -18.68-18.68z" fill="#fe5857"/><circle cx="18.8" cy="18.81" fill="#fafafa" r="9.34"/><circle cx="37.48" cy="37.49" fill="#2196f3" r="12.46"/><path d="m18.8 50a1.57 1.57 0 0 1 -1.1-.46c-.7-.77-17.59-17.78-17.59-30.73a18.69 18.69 0 0 1 37.37 0 13.64 13.64 0 0 1 -.14 1.91 1.56 1.56 0 0 1 -3.07-.52 9.2 9.2 0 0 0 .11-1.39 15.58 15.58 0 0 0 -31.15 0c0 9.9 11.85 23.35 15.57 27.33.53-.58 1.24-1.35 2.06-2.28a1.56 1.56 0 0 1 2.36 2c-1.95 2.23-3.31 3.6-3.31 3.6a1.63 1.63 0 0 1 -1.11.54z"/><path d="m18.8 28.15a9.34 9.34 0 1 1 9.34-9.34 9.34 9.34 0 0 1 -9.34 9.34zm0-15.57a6.23 6.23 0 1 0 6.2 6.23 6.23 6.23 0 0 0 -6.2-6.23z"/><path d="m37.48 50a12.46 12.46 0 1 1 12.46-12.51 12.45 12.45 0 0 1 -12.46 12.51zm0-21.8a9.34 9.34 0 1 0 9.34 9.34 9.34 9.34 0 0 0 -9.34-9.39z"/><path d="m40.24 34.15h-6.87a1 1 0 0 0 -1 1v4.42h1a1.47 1.47 0 1 0 2.93 0h2.7a1.47 1.47 0 0 0 2.94 0h1.22v-2.48zm-6.87 2.94v-2h2v2zm1.46 3.2a.74.74 0 1 1 .74-.74.74.74 0 0 1 -.74.74zm3.44-3.2h-2v-2h2zm2.21 3.2a.74.74 0 1 1 .74-.74.74.74 0 0 1 -.74.74zm-1.23-3.2v-2h.49l2 2z"/></svg>