<svg id="Layer_1" data-name="Layer 1" xmlns="http://www.w3.org/2000/svg" viewBox="0 0 34 81"><defs><style>.cls-1{opacity:0.25;isolation:isolate;}.cls-2{fill:#3497fd;}</style></defs><g id="bus"><path id="shadow" class="cls-1" d="M16,8H26a8,8,0,0,1,8,8V73a8,8,0,0,1-8,8H16a8,8,0,0,1-8-8V16A8,8,0,0,1,16,8Z"/><g id="Bus-2"><path id="Shape-2" class="cls-2" d="M8,0H18a8,8,0,0,1,8,8V65a8,8,0,0,1-8,8H8a8,8,0,0,1-8-8V8A8,8,0,0,1,8,0Z"/><path id="Shape-3" d="M10,2h6a8,8,0,0,1,8,8V63a8,8,0,0,1-8,8H10a8,8,0,0,1-8-8V10A8,8,0,0,1,10,2Z"/><path id="Shape-4" class="cls-2" d="M10,9h6a6,6,0,0,1,6,6V63a6,6,0,0,1-6,6H10a6,6,0,0,1-6-6H4V15A6,6,0,0,1,10,9Z"/></g></g></svg>