<svg id="Capa_1" data-name="Capa 1" xmlns="http://www.w3.org/2000/svg" viewBox="0 0 50 50"><defs><style>.cls-1{fill:#fdfd96;}.cls-2{fill:#fafafa;}.cls-3{fill:#2196f3;}</style></defs><title>marker_bus</title><path class="cls-1" d="M18.86,0A18.71,18.71,0,0,0,.19,18.71c0,13,16.85,30,17.57,30.73a1.55,1.55,0,0,0,2.2,0h0c.72-.73,17.57-17.76,17.57-30.73A18.71,18.71,0,0,0,18.86,0Z"/><ellipse class="cls-2" cx="18.86" cy="18.71" rx="9.34" ry="9.36"/><ellipse class="cls-3" cx="37.53" cy="37.42" rx="12.45" ry="12.47"/><path d="M18.86,49.89a1.56,1.56,0,0,1-1.1-.45C17,48.71.19,31.68.19,18.71a18.67,18.67,0,1,1,37.34,0,12.2,12.2,0,0,1-.15,1.91,1.55,1.55,0,0,1-3.06-.52,9.09,9.09,0,0,0,.11-1.39,15.57,15.57,0,1,0-31.13,0c0,9.91,11.84,23.39,15.56,27.37.53-.58,1.24-1.35,2.06-2.29a1.56,1.56,0,1,1,2.35,2.05c-1.94,2.23-3.3,3.61-3.3,3.61A1.64,1.64,0,0,1,18.86,49.89Z"/><path d="M18.86,28.07a9.36,9.36,0,1,1,9.33-9.36A9.35,9.35,0,0,1,18.86,28.07Zm0-15.6a6.24,6.24,0,1,0,6.22,6.24A6.25,6.25,0,0,0,18.86,12.47Z"/><path d="M37.53,49.89A12.47,12.47,0,1,1,50,37.42,12.46,12.46,0,0,1,37.53,49.89Zm0-21.82a9.36,9.36,0,1,0,9.33,9.35A9.35,9.35,0,0,0,37.53,28.07Z"/><path d="M34,39.8a1.45,1.45,0,0,0,.48,1.07v.85a.48.48,0,0,0,.48.48h.48a.48.48,0,0,0,.48-.48v-.48h3.83v.48a.47.47,0,0,0,.48.48h.47a.47.47,0,0,0,.48-.48v-.85a1.45,1.45,0,0,0,.48-1.07V35c0-1.68-1.71-1.92-3.83-1.92S34,33.33,34,35Zm1.68.48a.72.72,0,1,1,.72-.72A.72.72,0,0,1,35.69,40.28Zm4.31,0a.72.72,0,1,1,.71-.72A.72.72,0,0,1,40,40.28Zm.71-2.87H35V35h5.74Z"/></svg>