<?xml version="1.0" encoding="iso-8859-1"?>
<!-- Generator: Adobe Illustrator 19.0.0, SVG Export Plug-In . SVG Version: 6.00 Build 0)  -->
<svg version="1.1" id="Capa_1" xmlns="http://www.w3.org/2000/svg" xmlns:xlink="http://www.w3.org/1999/xlink" x="0px" y="0px"
	 viewBox="0 0 512.001 512.001" style="enable-background:new 0 0 512.001 512.001;" xml:space="preserve">
<path style="fill:#FF4A4A;" d="M384.72,151.95l72.968-93.349c1.767-2.26,2.09-5.33,0.832-7.91c-1.258-2.579-3.875-4.215-6.744-4.215
	H167.757c-4.144,0-7.503,3.36-7.503,7.503v195.939c0,4.144,3.36,7.503,7.503,7.503h284.02c2.869,0,5.486-1.636,6.744-4.215
	c1.258-2.579,0.934-5.649-0.832-7.91L384.72,151.95z"/>
<path style="fill:#E7343F;" d="M194.769,46.477h-27.012c-4.144,0-7.503,3.36-7.503,7.503v195.939c0,4.144,3.36,7.503,7.503,7.503
	h27.012V46.477z"/>
<path style="fill:#FFDB56;" d="M149.499,0c-14.022,0-25.43,11.408-25.43,25.43v440.361c0,4.144,3.36,7.503,7.503,7.503h35.853
	c4.144,0,7.503-3.359,7.503-7.503V25.43C174.928,11.408,163.52,0,149.499,0z"/>
<path style="fill:#FFBB24;" d="M149.499,473.295h17.926c4.144,0,7.503-3.359,7.503-7.503V25.43C174.928,11.408,163.52,0,149.499,0
	V473.295z"/>
<path style="fill:#F77935;" d="M246.088,502.817c-6.02-26.219-28.81-44.529-55.421-44.529h-82.336
	c-26.612,0-49.401,18.311-55.421,44.53c-0.511,2.227,0.02,4.566,1.444,6.354c1.424,1.788,3.585,2.829,5.87,2.829h178.552
	c2.285,0,4.446-1.041,5.87-2.829C246.068,507.383,246.599,505.044,246.088,502.817z"/>
<path style="fill:#EA5A21;" d="M246.088,502.817c-6.02-26.218-28.81-44.529-55.421-44.529H136.6
	c26.611,0,49.401,18.311,55.421,44.529c0.511,2.228-0.02,4.566-1.444,6.355c-1.424,1.787-3.585,2.828-5.87,2.828h54.067
	c2.285,0,4.446-1.041,5.87-2.828C246.068,507.383,246.599,505.044,246.088,502.817z"/>
<g>
</g>
<g>
</g>
<g>
</g>
<g>
</g>
<g>
</g>
<g>
</g>
<g>
</g>
<g>
</g>
<g>
</g>
<g>
</g>
<g>
</g>
<g>
</g>
<g>
</g>
<g>
</g>
<g>
</g>
</svg>
