<svg enable-background="new 0 0 50 50" viewBox="0 0 50 50" xmlns="http://www.w3.org/2000/svg"><path d="m18.8.1c-10.3 0-18.7 8.4-18.7 18.7 0 13 16.9 30 17.6 30.7.6.6 1.6.6 2.2 0 .7-.7 17.6-17.7 17.6-30.7 0-10.3-8.4-18.7-18.7-18.7z" fill="#fe5857"/><circle cx="18.8" cy="18.8" fill="#fafafa" r="9.3"/><circle cx="37.5" cy="37.5" fill="#2196f3" r="12.5"/><path d="m18.8 50c-.4 0-.8-.2-1.1-.5-.7-.7-17.6-17.7-17.6-30.7.2-10.3 8.8-18.5 19.1-18.2 10 .2 18 8.3 18.3 18.3 0 .6 0 1.3-.1 1.9-.2.8-1 1.4-1.9 1.2-.8-.2-1.3-.9-1.2-1.7.1-.5.1-.9.1-1.4-.2-8.6-7.4-15.4-16-15.2-8.3.2-15 6.9-15.2 15.2 0 9.9 11.9 23.4 15.6 27.3.5-.6 1.2-1.3 2.1-2.3.6-.6 1.6-.5 2.2.1.5.5.5 1.3.2 1.9-2 2.2-3.3 3.6-3.3 3.6-.4.3-.8.5-1.2.5z"/><path d="m18.8 28.1c-5.2 0-9.3-4.2-9.3-9.3s4.2-9.3 9.3-9.3 9.3 4.2 9.3 9.3c0 5.2-4.1 9.3-9.3 9.3zm0-15.5c-3.4 0-6.2 2.8-6.3 6.2s2.8 6.2 6.2 6.3c3.4 0 6.2-2.8 6.3-6.2 0-3.5-2.8-6.3-6.2-6.3z"/><path d="m37.5 50c-6.9 0-12.5-5.6-12.5-12.5s5.6-12.5 12.5-12.5 12.4 5.5 12.5 12.4c0 7-5.6 12.6-12.5 12.6zm0-21.8c-5.2 0-9.3 4.2-9.3 9.3s4.2 9.3 9.3 9.3 9.3-4.2 9.3-9.3c0-5.1-4.1-9.3-9.3-9.3z"/><path d="m32.4 38.5h.5c.3-.4.8-.6 1.3-.6s1 .2 1.3.6h4.4c.3-.4.8-.6 1.3-.6s1 .2 1.3.6h.5v-1.2h-10.6z" opacity=".3"/><path d="m40.6 33.3h-8.2c-.6 0-1.2.5-1.2 1.2v5.3h1.2c0 1 .8 1.8 1.8 1.8s1.8-.8 1.8-1.8h3.5c0 1 .8 1.8 1.8 1.8s1.8-.8 1.8-1.8h1.2v-2.9zm-1.2 1.2h.6l1.8 1.8h-2.3v-1.8zm-3.5 0h2.3v1.8h-2.3zm-3.5 0h2.3v1.8h-2.3zm1.8 5.9c-.4 0-.7-.3-.7-.7s.3-.7.7-.7.7.3.7.7-.3.7-.7.7zm7 0c-.4 0-.7-.3-.7-.7s.3-.7.7-.7.7.3.7.7-.3.7-.7.7zm1.7-1.9h-.5c-.3-.4-.8-.6-1.3-.6s-1 .2-1.3.6h-4.4c-.3-.4-.8-.6-1.3-.6s-1 .2-1.3.6h-.5v-1.2h10.5v1.2z"/></svg>