<svg enable-background="new 0 0 512 512" viewBox="0 0 512 512" xmlns="http://www.w3.org/2000/svg"><path d="m256 387.1c-66.7 0-137.6 21.9-137.6 62.4s70.9 62.5 137.6 62.5 137.6-21.9 137.6-62.4c0-40.6-70.9-62.5-137.6-62.5z" fill="#ffbb24"/><path d="m256 387.1c-66.7 0-137.6 21.9-137.6 62.4s70.9 62.5 137.6 62.5 137.6-21.9 137.6-62.4c0-40.6-70.9-62.5-137.6-62.5z" fill="#ffdb56"/><path d="m256 480.2c-57.4 0-117.9-16.2-133.7-46.5-2.6 4.9-3.9 10.2-3.9 15.9 0 40.6 70.9 62.4 137.6 62.4s137.6-21.9 137.6-62.4c0-5.7-1.4-11-3.9-15.9-15.8 30.3-76.3 46.5-133.7 46.5z" fill="#ffbb24"/><path d="m289.7 212.2c-2.6-2-6.1-2.7-9.3-1.9-15.9 4.2-33 4.2-48.9 0-3.2-.8-6.6-.1-9.3 1.9-2.6 2-4.2 5.2-4.2 8.5v201.8c0 20.9 17 37.9 37.9 37.9s37.9-17 37.9-37.9v-201.8c.1-3.4-1.5-6.5-4.1-8.5z" fill="#e2e2e2"/><path d="m289.7 212.2c-2.6-2-6.1-2.7-9.3-1.9-15.9 4.2-33 4.2-48.9 0-3.2-.8-6.6-.1-9.3 1.9-2.6 2-4.2 5.2-4.2 8.5v35.9c11.9 4.1 24.6 6.3 37.9 6.3s26-2.2 37.9-6.3v-35.9c.1-3.4-1.5-6.5-4.1-8.5z" fill="#c6c5ca"/><path d="m256 0c-64.8 0-117.4 52.7-117.4 117.4s52.6 117.5 117.4 117.5 117.4-52.7 117.4-117.4-52.6-117.5-117.4-117.5z" fill="#ff4a4a"/><path d="m256 0c-8.7 0-17.1 1-25.2 2.8 52.7 11.5 92.2 58.5 92.2 114.6s-39.6 103.1-92.2 114.7c8.1 1.8 16.5 2.8 25.2 2.8 64.8 0 117.4-52.7 117.4-117.4s-52.6-117.5-117.4-117.5z" fill="#e7343f"/></svg>