<svg height="512" viewBox="0 0 64 64" width="512" xmlns="http://www.w3.org/2000/svg"><g id="Bus_Stop-Bus-Navigation-Pin-Location" data-name="Bus Stop-Bus-Navigation-Pin-Location"><path d="m42 56c0 2.76-4.48 5-10 5s-10-2.24-10-5c0-2.45 3.52-4.48 8.16-4.91.6-.06 1.21-.09 1.84-.09a17.816 17.816 0 0 1 5.5.82c2.71.9 4.5 2.44 4.5 4.18z" fill="#ff9811"/><path d="m37.5 51.82c-.22.46-.42.92-.61 1.39-.12.29-.23.57-.34.86l-.67 1.84a2.007 2.007 0 0 1 -3.76 0l-.67-1.84c-.11-.29-.22-.57-.33-.86-.29-.72-.61-1.43-.96-2.12.6-.06 1.21-.09 1.84-.09a17.816 17.816 0 0 1 5.5.82z" fill="#ee8700"/><path d="m52 23a19.951 19.951 0 0 1 -7.59 15.67 30.845 30.845 0 0 0 -9.52 12.54c-.12.29-.23.57-.34.86l-.67 1.84a2.007 2.007 0 0 1 -3.76 0l-.67-1.84c-.11-.29-.22-.57-.33-.86a30 30 0 0 0 -9.39-12.43 19.927 19.927 0 0 1 -7.72-16.28 20 20 0 0 1 39.99.5z" fill="#ff5023"/><circle cx="34" cy="25" fill="#ed1c24" r="16"/><circle cx="32" cy="23" fill="#f1f2f2" r="16"/><path d="m43 21h-2v-4a1 1 0 0 0 -1-1h-2l-1-3h-6l-1 3h-2a1 1 0 0 0 -1 1v4h-2a1 1 0 0 0 -1 1v4h3v5a1 1 0 0 0 1 1v3a1 1 0 0 0 1 1h2a1 1 0 0 0 1-1v-3h4v3a1 1 0 0 0 1 1h2a1 1 0 0 0 1-1v-3a1 1 0 0 0 1-1v-5h3v-4a1 1 0 0 0 -1-1z" fill="#e0e0e2"/><path d="m25 19v5h-3v-4a1 1 0 0 1 1-1z" fill="#5aaae7"/><path d="m42 20v4h-3v-5h2a1 1 0 0 1 1 1z" fill="#5aaae7"/><path d="m30 30v3a1 1 0 0 1 -1 1h-2a1 1 0 0 1 -1-1v-3z" fill="#57565c"/><path d="m39 24v5a1 1 0 0 1 -1 1h-12a1 1 0 0 1 -1-1v-5z" fill="#3d9ae2"/><path d="m35 11 1 3h-8l1-3z" fill="#1e81ce"/><path d="m39 17h-14v-2a1 1 0 0 1 1-1h12a1 1 0 0 1 1 1z" fill="#3d9ae2"/><path d="m38 30v3a1 1 0 0 1 -1 1h-2a1 1 0 0 1 -1-1v-3z" fill="#57565c"/><path d="m39 17v2 5h-14v-5-2z" fill="#bddbff"/><path d="m28 26h2v2h-2z" fill="#1e81ce"/><path d="m34 26h2v2h-2z" fill="#1e81ce"/><g fill="#ed1c24"><path d="m29 42h2v2h-2z"/><path d="m33 42h2v2h-2z"/></g></g></svg>