<svg enable-background="new 0 0 50 50" viewBox="0 0 50 50" xmlns="http://www.w3.org/2000/svg"><path d="m18.9 0c-10.4 0-18.7 8.4-18.7 18.7 0 13 16.9 30 17.6 30.7.6.6 1.6.6 2.2 0 .7-.7 17.6-17.8 17.6-30.7-.1-10.3-8.4-18.7-18.7-18.7z" fill="#ffdb57"/><ellipse cx="18.9" cy="18.7" fill="#fafafa" rx="9.3" ry="9.4"/><ellipse cx="37.5" cy="37.4" fill="#2196f3" rx="12.5" ry="12.5"/><path d="m18.9 49.9c-.4 0-.8-.2-1.1-.5-.8-.7-17.6-17.7-17.6-30.7 0-10.3 8.3-18.7 18.7-18.7 10.3 0 18.7 8.4 18.7 18.7 0 .6-.1 1.3-.2 1.9-.1.8-.9 1.4-1.8 1.3s-1.4-.9-1.3-1.8c.1-.5.1-.9.1-1.4.2-8.6-6.6-15.7-15.2-16-8.6-.2-15.7 6.6-16 15.2v.8c0 9.9 11.8 23.4 15.6 27.4.5-.6 1.2-1.3 2.1-2.3.5-.7 1.5-.8 2.2-.2.7.5.8 1.5.2 2.2 0 0 0 0-.1.1-1.9 2.2-3.3 3.6-3.3 3.6-.2.2-.6.4-1 .4z"/><path d="m18.9 28.1c-5.2 0-9.4-4.2-9.4-9.3 0-5.2 4.2-9.4 9.3-9.4 5.2 0 9.4 4.2 9.4 9.3 0 5.2-4.2 9.4-9.3 9.4zm0-15.6c-3.4 0-6.2 2.8-6.3 6.2 0 3.4 2.8 6.2 6.2 6.3 3.4 0 6.2-2.8 6.3-6.2 0-3.5-2.8-6.3-6.2-6.3z"/><path d="m37.5 49.9c-6.9 0-12.5-5.6-12.5-12.5s5.6-12.5 12.5-12.5 12.5 5.6 12.5 12.5-5.6 12.5-12.5 12.5zm0-21.8c-5.2 0-9.4 4.2-9.4 9.3 0 5.2 4.2 9.4 9.3 9.4 5.2 0 9.4-4.2 9.4-9.3.1-5.2-4.1-9.4-9.3-9.4z"/><path d="m40.4 40.4.2-.1c.1-.1.2-.2.2-.4v-2.2h-6.5v2.2c0 .2.1.3.2.4l.2.1c-.1 0 5.7 0 5.7 0zm-4.8-.5c-.4 0-.8-.4-.8-.8s.4-.8.8-.8.8.4.8.8-.3.8-.8.8zm3-.8c0-.4.4-.8.8-.8s.8.4.8.8-.4.8-.8.8-.8-.4-.8-.8zm-1.1-5.7c-2 0-2.8.2-3.1.5h6.1c-.2-.3-1-.5-3-.5z" opacity=".3"/><path d="m40.2 42.6h.5c.3 0 .5-.2.5-.5v-1c.3-.3.5-.7.5-1.2v-5.4c0-1.9-1.9-2.2-4.3-2.2s-4.3.3-4.3 2.2v5.4c0 .5.2.9.5 1.2v1c0 .3.2.5.5.5h.5c.3 0 .5-.2.5-.5v-.5h4.3v.4c.3.3.5.6.8.6zm-2.7-9.2c2 0 2.8.2 3.1.5h-6.1c.3-.3 1-.5 3-.5zm-3.2 1.6h6.5v1.6h-6.5zm1.1 5.4h-.7l-.2-.1c-.1-.1-.2-.2-.2-.4v-2.2h6.5v2.2c0 .2-.1.3-.2.4l-.2.1z"/><circle cx="35.6" cy="39.1" r=".8"/><circle cx="39.4" cy="39.1" r=".8"/></svg>