<?xml version="1.0" encoding="iso-8859-1"?>
<!-- Generator: Adobe Illustrator 19.0.0, SVG Export Plug-In . SVG Version: 6.00 Build 0)  -->
<svg version="1.1" id="Capa_1" xmlns="http://www.w3.org/2000/svg" xmlns:xlink="http://www.w3.org/1999/xlink" x="0px" y="0px"
	 viewBox="0 0 511.999 511.999" style="enable-background:new 0 0 511.999 511.999;" xml:space="preserve">
<path style="fill:#FF4A4A;" d="M255.998,0C147.059,0,58.43,88.629,58.43,197.568c0,37.618,10.251,77.556,30.467,118.703
	c16.03,32.627,38.342,66.111,66.317,99.521c47.491,56.721,94.228,93.115,96.194,94.638c1.351,1.045,2.972,1.568,4.591,1.568
	c1.619,0,3.24-0.523,4.591-1.568c1.967-1.521,48.703-37.917,96.194-94.638c27.974-33.411,50.287-66.895,66.317-99.521
	c20.216-41.147,30.467-81.085,30.467-118.703C453.568,88.629,364.939,0,255.998,0z"/>
<g>
	<path style="fill:#E7343F;" d="M255.998,0c-7.363,0-14.63,0.418-21.786,1.207c98.725,10.88,175.782,94.785,175.782,196.361
		c0,37.618-10.251,77.556-30.467,118.703c-16.03,32.627-38.342,66.111-66.317,99.521c-30.552,36.49-60.79,64.565-78.998,80.358
		c10.095,8.756,16.494,13.737,17.195,14.28c1.351,1.045,2.972,1.568,4.591,1.568c1.619,0,3.24-0.523,4.591-1.568
		c1.967-1.521,48.703-37.917,96.194-94.638c27.974-33.411,50.287-66.895,66.317-99.521c20.216-41.147,30.467-81.085,30.467-118.703
		C453.568,88.629,364.939,0,255.998,0z"/>
	<path style="fill:#E7343F;" d="M255.998,60.188c-75.751,0-137.381,61.628-137.381,137.381c0,75.751,61.628,137.38,137.381,137.38
		s137.38-61.628,137.38-137.38C393.379,121.817,331.751,60.188,255.998,60.188z"/>
</g>
<path style="fill:#FFDB57;" d="M344.707,184.682c4.38-4.27,5.927-10.537,4.036-16.355c-1.891-5.818-6.825-9.979-12.879-10.858
	l-44.808-6.512c-0.309-0.045-0.576-0.239-0.714-0.518l-20.038-40.602c-2.708-5.486-8.19-8.894-14.306-8.894
	c-6.117,0-11.599,3.408-14.307,8.894l-20.037,40.601c-0.139,0.281-0.406,0.475-0.716,0.521l-44.807,6.511
	c-6.054,0.879-10.988,5.04-12.879,10.858c-1.891,5.818-0.344,12.085,4.036,16.355l32.423,31.604c0.225,0.219,0.326,0.533,0.274,0.84
	l-7.655,44.626c-1.033,6.029,1.398,12.009,6.348,15.604c4.949,3.597,11.387,4.061,16.802,1.214l40.076-21.07
	c0.277-0.146,0.608-0.145,0.884,0l40.077,21.069c2.356,1.238,4.903,1.851,7.438,1.851c3.294,0,6.567-1.032,9.362-3.064
	c4.949-3.596,7.382-9.575,6.348-15.605l-7.653-44.624c-0.053-0.309,0.049-0.623,0.273-0.842L344.707,184.682z"/>
<g>
</g>
<g>
</g>
<g>
</g>
<g>
</g>
<g>
</g>
<g>
</g>
<g>
</g>
<g>
</g>
<g>
</g>
<g>
</g>
<g>
</g>
<g>
</g>
<g>
</g>
<g>
</g>
<g>
</g>
</svg>
