<svg enable-background="new 0 0 512.001 512.001" viewBox="0 0 512.001 512.001" xmlns="http://www.w3.org/2000/svg"><path d="m384.72 151.95 72.968-93.349c1.767-2.26 2.09-5.33.832-7.91-1.258-2.579-3.875-4.215-6.744-4.215h-284.019c-4.144 0-7.503 3.36-7.503 7.503v195.939c0 4.144 3.36 7.503 7.503 7.503h284.02c2.869 0 5.486-1.636 6.744-4.215s.934-5.649-.832-7.91z" fill="#ff4a4a"/><path d="m194.769 46.477h-27.012c-4.144 0-7.503 3.36-7.503 7.503v195.939c0 4.144 3.36 7.503 7.503 7.503h27.012z" fill="#e7343f"/><path d="m149.499 0c-14.022 0-25.43 11.408-25.43 25.43v440.361c0 4.144 3.36 7.503 7.503 7.503h35.853c4.144 0 7.503-3.359 7.503-7.503v-440.361c0-14.022-11.408-25.43-25.429-25.43z" fill="#ffdb56"/><path d="m149.499 473.295h17.926c4.144 0 7.503-3.359 7.503-7.503v-440.362c0-14.022-11.408-25.43-25.429-25.43z" fill="#ffbb24"/><path d="m246.088 502.817c-6.02-26.219-28.81-44.529-55.421-44.529h-82.336c-26.612 0-49.401 18.311-55.421 44.53-.511 2.227.02 4.566 1.444 6.354s3.585 2.829 5.87 2.829h178.552c2.285 0 4.446-1.041 5.87-2.829 1.422-1.789 1.953-4.128 1.442-6.355z" fill="#f77935"/><path d="m246.088 502.817c-6.02-26.218-28.81-44.529-55.421-44.529h-54.067c26.611 0 49.401 18.311 55.421 44.529.511 2.228-.02 4.566-1.444 6.355-1.424 1.787-3.585 2.828-5.87 2.828h54.067c2.285 0 4.446-1.041 5.87-2.828 1.424-1.789 1.955-4.128 1.444-6.355z" fill="#ea5a21"/></svg>